M48
;GenerationSoftware,Autodesk,EAGLE,9.3.0*%
;CreationDate,2019-12-26T08:31:05Z*%
FMAT,2
ICI,OFF
METRIC,TZ,000.000
T7C0.400
T6C0.600
T5C0.700
T4C1.000
T3C1.100
T2C1.500
T1C1.600
%
G90
M71
T1
X64560Y63119
X67100Y60579
X64560Y58039
X69640Y58039
X69640Y63119
T2
X37600Y58079
X46600Y58079
X30600Y58079
X53600Y58079
T3
X59850Y6477
X63350Y6477
X40850Y6477
X66850Y6477
X70350Y6477
X5850Y6477
X9350Y6477
X12850Y6477
X16350Y6477
X19850Y6477
X23350Y6477
X26850Y6477
X30350Y6477
X36350Y60579
X37350Y6477
X21844Y29845
X19304Y32385
X19304Y29845
X24384Y32385
X24384Y29845
X21844Y32385
X42037Y38862
X44577Y46482
X44577Y43942
X42037Y46482
X47850Y60579
X42037Y41402
X44577Y41402
X44577Y38862
X52350Y60579
X33850Y6477
X31850Y60579
X52850Y6477
X56350Y6477
X44350Y6477
X42037Y43942
T4
X11370Y56769
X8830Y56769
X8830Y59309
X11370Y59309
X52324Y20066
X52324Y27686
X59944Y14986
X59944Y27686
X52324Y14986
X59944Y20066
X52324Y9906
X59944Y9906
X63246Y27686
X70866Y14986
X70866Y27686
X63246Y14986
X63246Y20066
X70866Y20066
X63246Y9906
X70866Y9906
T5
X8509Y32512
X6604Y42799
X9525Y25273
X27178Y50292
X48006Y41402
X33528Y21082
X38354Y21209
X37338Y46736
X14478Y25273
X27559Y21082
X37338Y53340
X47752Y26670
X18415Y50292
X27559Y25273
X47752Y22860
X40640Y21590
X30099Y21082
T6
X67056Y33020
X41275Y9525
X56515Y33020
X33147Y9525
X25273Y48387
X19050Y48387
T7
X30226Y46736
X38862Y43180
X11430Y18034
X26289Y30607
X44450Y33147
X26416Y28702
X18796Y22098
X23368Y22098
X18796Y25273
X23368Y25273
X9525Y37846
X19431Y38735
X19431Y41275
X19685Y59563
X23876Y36068
X28321Y35052
X28321Y38608
X18796Y47117
X9652Y45085
X4826Y45085
X28067Y44069
X25146Y47117
X44704Y18415
X36449Y21209
X35179Y22098
X40132Y24130
X38227Y24257
X48895Y29591
X39878Y30861
X59055Y35306
X56261Y35306
X28321Y39751
X31877Y50038
X12065Y42291
X12065Y40767
X25146Y43561
X18542Y42799
X29845Y32131
X30861Y50038
X23114Y45847
X25146Y45847
X30734Y23495
X42291Y36322
X30099Y27686
X41275Y36322
X29083Y27686
X37338Y23495
X43180Y30607
X39370Y32385
X42291Y22733
X23368Y20574
X18796Y20574
X33020Y29718
X26289Y32131
X39370Y39116
X50292Y25527
X8255Y41021
X28321Y36576
X24384Y35179
X15240Y37465
X44704Y24892
X23114Y42799
X32004Y40767
X24384Y39751
X29464Y41529
X36449Y40767
X46355Y36449
X48133Y52578
X48133Y51562
X65913Y51562
X48133Y42672
X54737Y37973
X34925Y42037
X47371Y18923
X17145Y64008
X19939Y64008
X22352Y64008
X25146Y64008
X17907Y61468
X24257Y61468
X34290Y35687
X5715Y34417
X4572Y32512
X5715Y30607
X5715Y28194
X9017Y17399
X9017Y16510
X11303Y12573
X10033Y42799
X5715Y12319
X5715Y10922
X50292Y24003
X40894Y33909
X24257Y16129
X24257Y14605
X32385Y16129
X32385Y14605
X28956Y17653
X28956Y16383
X30226Y16383
X30226Y17653
X37084Y17653
X38354Y17653
X37084Y16383
X38354Y16383
X10287Y11557
X23114Y44323
X11430Y34163
X48133Y43688
X52832Y37973
X39370Y33401
X46228Y30607
X30861Y40767
X11430Y53975
M30