G04 EAGLE Gerber RS-274X export*
G75*
%MOMM*%
%FSLAX34Y34*%
%LPD*%
%IN*%
%IPPOS*%
%AMOC8*
5,1,8,0,0,1.08239X$1,22.5*%
G01*
%ADD10C,0.254000*%


D10*
X0Y0D02*
X762000Y0D01*
X762000Y654050D01*
X0Y654050D01*
X0Y0D01*
X177910Y446012D02*
X177842Y445229D01*
X177705Y444455D01*
X177502Y443696D01*
X177233Y442958D01*
X176901Y442245D01*
X176508Y441565D01*
X176057Y440921D01*
X175552Y440319D01*
X174996Y439763D01*
X174394Y439258D01*
X173750Y438807D01*
X173070Y438414D01*
X172357Y438082D01*
X171619Y437813D01*
X170860Y437610D01*
X170086Y437474D01*
X169303Y437405D01*
X168517Y437405D01*
X167734Y437474D01*
X166960Y437610D01*
X166201Y437813D01*
X165463Y438082D01*
X164750Y438414D01*
X164070Y438807D01*
X163426Y439258D01*
X162824Y439763D01*
X162268Y440319D01*
X161763Y440921D01*
X161312Y441565D01*
X160919Y442245D01*
X160587Y442958D01*
X160318Y443696D01*
X160115Y444455D01*
X159979Y445229D01*
X159910Y446012D01*
X159910Y446798D01*
X159979Y447581D01*
X160115Y448355D01*
X160318Y449114D01*
X160587Y449852D01*
X160919Y450565D01*
X161312Y451245D01*
X161763Y451889D01*
X162268Y452491D01*
X162824Y453047D01*
X163426Y453552D01*
X164070Y454003D01*
X164750Y454396D01*
X165463Y454728D01*
X166201Y454997D01*
X166960Y455200D01*
X167734Y455337D01*
X168517Y455405D01*
X169303Y455405D01*
X170086Y455337D01*
X170860Y455200D01*
X171619Y454997D01*
X172357Y454728D01*
X173070Y454396D01*
X173750Y454003D01*
X174394Y453552D01*
X174996Y453047D01*
X175552Y452491D01*
X176057Y451889D01*
X176508Y451245D01*
X176901Y450565D01*
X177233Y449852D01*
X177502Y449114D01*
X177705Y448355D01*
X177842Y447581D01*
X177910Y446798D01*
X177910Y446012D01*
X174910Y520998D02*
X174835Y520328D01*
X174685Y519671D01*
X174462Y519035D01*
X174170Y518428D01*
X173811Y517858D01*
X173391Y517331D01*
X172914Y516854D01*
X172388Y516434D01*
X171817Y516075D01*
X171210Y515783D01*
X170574Y515560D01*
X169917Y515410D01*
X169247Y515335D01*
X168573Y515335D01*
X167903Y515410D01*
X167246Y515560D01*
X166610Y515783D01*
X166003Y516075D01*
X165433Y516434D01*
X164906Y516854D01*
X164429Y517331D01*
X164009Y517858D01*
X163650Y518428D01*
X163358Y519035D01*
X163135Y519671D01*
X162985Y520328D01*
X162910Y520998D01*
X162910Y521672D01*
X162985Y522342D01*
X163135Y522999D01*
X163358Y523635D01*
X163650Y524242D01*
X164009Y524813D01*
X164429Y525339D01*
X164906Y525816D01*
X165433Y526236D01*
X166003Y526595D01*
X166610Y526887D01*
X167246Y527110D01*
X167903Y527260D01*
X168573Y527335D01*
X169247Y527335D01*
X169917Y527260D01*
X170574Y527110D01*
X171210Y526887D01*
X171817Y526595D01*
X172388Y526236D01*
X172914Y525816D01*
X173391Y525339D01*
X173811Y524813D01*
X174170Y524242D01*
X174462Y523635D01*
X174685Y522999D01*
X174835Y522342D01*
X174910Y521672D01*
X174910Y520998D01*
M02*
