G04 EAGLE Gerber RS-274X export*
G75*
%MOMM*%
%FSLAX34Y34*%
%LPD*%
%INSoldermask Top*%
%IPPOS*%
%AMOC8*
5,1,8,0,0,1.08239X$1,22.5*%
G01*
%ADD10C,2.003200*%
%ADD11C,1.403200*%
%ADD12R,0.965200X1.092200*%
%ADD13C,1.853200*%
%ADD14C,2.603200*%
%ADD15R,1.092200X0.965200*%
%ADD16R,1.219200X1.981200*%
%ADD17R,1.981200X1.219200*%
%ADD18R,1.219200X0.508000*%
%ADD19R,0.508000X1.219200*%
%ADD20R,5.283200X5.283200*%
%ADD21R,0.965200X1.473200*%
%ADD22C,1.711200*%
%ADD23R,1.727200X0.903200*%
%ADD24R,1.219200X0.838200*%
%ADD25R,1.219200X1.473200*%
%ADD26R,1.473200X1.219200*%
%ADD27R,1.854200X1.600200*%
%ADD28R,2.003200X2.103200*%
%ADD29R,2.103200X2.103200*%
%ADD30R,1.803200X1.603200*%
%ADD31R,0.603200X1.603200*%
%ADD32C,2.453200*%
%ADD33R,2.997200X3.759200*%
%ADD34R,0.838200X1.346200*%
%ADD35R,3.603200X2.803200*%
%ADD36R,0.503200X1.600200*%
%ADD37R,0.965200X1.727200*%
%ADD38R,3.251200X4.648200*%
%ADD39C,0.254000*%


D10*
X168910Y446405D03*
D11*
X168910Y521335D03*
D12*
X419100Y323850D03*
X434340Y323850D03*
X72390Y410210D03*
X57150Y410210D03*
X473710Y379730D03*
X488950Y379730D03*
X473710Y364490D03*
X488950Y364490D03*
X547370Y364490D03*
X532130Y364490D03*
X419100Y339090D03*
X434340Y339090D03*
X492760Y237490D03*
X477520Y237490D03*
X492760Y252730D03*
X477520Y252730D03*
X269240Y397510D03*
X254000Y397510D03*
X317500Y234950D03*
X332740Y234950D03*
X363220Y234950D03*
X347980Y234950D03*
X304800Y420370D03*
X320040Y420370D03*
X254000Y351790D03*
X269240Y351790D03*
X273050Y321310D03*
X288290Y321310D03*
D13*
X218440Y298450D03*
X193040Y323850D03*
X193040Y298450D03*
X243840Y323850D03*
X243840Y298450D03*
X218440Y323850D03*
X420370Y388620D03*
X445770Y464820D03*
X445770Y439420D03*
X420370Y464820D03*
X420370Y439420D03*
X420370Y414020D03*
X445770Y414020D03*
X445770Y388620D03*
D14*
X671000Y605790D03*
X645600Y631190D03*
X645600Y580390D03*
X696400Y580390D03*
X696400Y631190D03*
D13*
X443500Y64770D03*
X408500Y64770D03*
X373500Y64770D03*
X338500Y64770D03*
X303500Y64770D03*
X268500Y64770D03*
X233500Y64770D03*
X198500Y64770D03*
X163500Y64770D03*
X128500Y64770D03*
X93500Y64770D03*
X58500Y64770D03*
X703500Y64770D03*
X668500Y64770D03*
X633500Y64770D03*
X598500Y64770D03*
X563500Y64770D03*
X528500Y64770D03*
D15*
X81915Y367030D03*
X45085Y367030D03*
D12*
X638810Y301625D03*
X638810Y338455D03*
D15*
X81915Y95250D03*
X45085Y95250D03*
X81915Y344170D03*
X45085Y344170D03*
D12*
X533400Y301625D03*
X533400Y338455D03*
D16*
X78740Y391160D03*
X48260Y391160D03*
D17*
X434340Y102870D03*
X434340Y133350D03*
X459740Y102870D03*
X459740Y133350D03*
D18*
X308610Y381870D03*
X308610Y376870D03*
X308610Y371870D03*
X308610Y366870D03*
X308610Y361870D03*
X308610Y356870D03*
X308610Y351870D03*
X308610Y346870D03*
X308610Y341870D03*
X308610Y336870D03*
X308610Y331870D03*
D19*
X317900Y322580D03*
X322900Y322580D03*
X327900Y322580D03*
X332900Y322580D03*
X337900Y322580D03*
X342900Y322580D03*
X347900Y322580D03*
X352900Y322580D03*
X357900Y322580D03*
X362900Y322580D03*
X367900Y322580D03*
D18*
X377190Y331870D03*
X377190Y336870D03*
X377190Y341870D03*
X377190Y346870D03*
X377190Y351870D03*
X377190Y356870D03*
X377190Y361870D03*
X377190Y366870D03*
X377190Y371870D03*
X377190Y376870D03*
X377190Y381870D03*
D19*
X367900Y391160D03*
X362900Y391160D03*
X357900Y391160D03*
X352900Y391160D03*
X347900Y391160D03*
X342900Y391160D03*
X337900Y391160D03*
X332900Y391160D03*
X327900Y391160D03*
X322900Y391160D03*
X317900Y391160D03*
D20*
X342900Y356870D03*
D21*
X152400Y121940D03*
X177800Y121940D03*
X177800Y187940D03*
X152400Y187940D03*
X203200Y121940D03*
X228600Y121940D03*
X228600Y187940D03*
X203200Y187940D03*
D22*
X113700Y567690D03*
X88300Y567690D03*
X113700Y593090D03*
X88300Y593090D03*
D23*
X642620Y416210D03*
X642620Y426210D03*
X642620Y436210D03*
X642620Y446210D03*
X642620Y456210D03*
X642620Y466210D03*
X642620Y476210D03*
X642620Y486210D03*
X642620Y496210D03*
X642620Y506210D03*
X642620Y516210D03*
X642620Y526210D03*
X497840Y526210D03*
X497840Y516210D03*
X497840Y506210D03*
X497840Y456210D03*
X497840Y446210D03*
X497840Y436210D03*
X497840Y426210D03*
X497840Y416210D03*
D24*
X576580Y306730D03*
X576580Y325730D03*
X553720Y316230D03*
X681990Y306730D03*
X681990Y325730D03*
X659130Y316230D03*
D12*
X273050Y306070D03*
X288290Y306070D03*
X191770Y351790D03*
X207010Y351790D03*
X207010Y275590D03*
X191770Y275590D03*
X246380Y275590D03*
X231140Y275590D03*
X254000Y382270D03*
X269240Y382270D03*
D25*
X173990Y95250D03*
X156210Y95250D03*
D12*
X172720Y220980D03*
X157480Y220980D03*
D25*
X223520Y95250D03*
X205740Y95250D03*
D12*
X223520Y220980D03*
X208280Y220980D03*
D15*
X462280Y295910D03*
X462280Y280670D03*
X477520Y295910D03*
X477520Y280670D03*
D12*
X254000Y367030D03*
X269240Y367030D03*
D15*
X431800Y295910D03*
X431800Y280670D03*
X447040Y295910D03*
X447040Y280670D03*
X416560Y295910D03*
X416560Y280670D03*
X473710Y151130D03*
X473710Y166370D03*
D26*
X457200Y149860D03*
X457200Y167640D03*
X436880Y149860D03*
X436880Y167640D03*
D15*
X420370Y151130D03*
X420370Y166370D03*
X607060Y308610D03*
X607060Y323850D03*
X591820Y323850D03*
X591820Y308610D03*
X712470Y308610D03*
X712470Y323850D03*
D12*
X590550Y364490D03*
X605790Y364490D03*
D15*
X697230Y323850D03*
X697230Y308610D03*
D12*
X269240Y449580D03*
X254000Y449580D03*
X269240Y434340D03*
X254000Y434340D03*
X269240Y412750D03*
X254000Y412750D03*
X605790Y379730D03*
X590550Y379730D03*
X561340Y364490D03*
X576580Y364490D03*
X576580Y379730D03*
X561340Y379730D03*
X518160Y364490D03*
X502920Y364490D03*
X518160Y379730D03*
X502920Y379730D03*
D27*
X319405Y254635D03*
X361315Y254635D03*
X361315Y281305D03*
X319405Y281305D03*
D28*
X251000Y639550D03*
D29*
X223000Y639550D03*
D28*
X171000Y639550D03*
D29*
X199000Y639550D03*
D30*
X243000Y615550D03*
X179000Y615550D03*
D31*
X211000Y612550D03*
X217500Y612550D03*
X224000Y612550D03*
X204500Y612550D03*
X198000Y612550D03*
D13*
X363500Y605790D03*
X318500Y605790D03*
D32*
X376000Y580790D03*
X306000Y580790D03*
D13*
X523500Y605790D03*
X478500Y605790D03*
D32*
X536000Y580790D03*
X466000Y580790D03*
D33*
X345440Y467360D03*
X345440Y533400D03*
D12*
X359410Y420370D03*
X374650Y420370D03*
D34*
X65430Y142875D03*
X74930Y142875D03*
X84430Y142875D03*
X84430Y167005D03*
X74930Y167005D03*
X65430Y167005D03*
D16*
X48260Y119380D03*
X78740Y119380D03*
X48260Y281940D03*
X78740Y281940D03*
X48260Y306070D03*
X78740Y306070D03*
D35*
X74930Y253790D03*
X74930Y195790D03*
D15*
X46990Y170180D03*
X46990Y154940D03*
D12*
X55880Y325120D03*
X71120Y325120D03*
D15*
X102870Y125730D03*
X102870Y140970D03*
X118110Y170180D03*
X118110Y154940D03*
X102870Y154940D03*
X102870Y170180D03*
D22*
X523240Y276860D03*
X599440Y149860D03*
X599440Y276860D03*
X523240Y149860D03*
X523240Y200660D03*
X599440Y200660D03*
X523240Y99060D03*
X599440Y99060D03*
X632460Y276860D03*
X708660Y149860D03*
X708660Y276860D03*
X632460Y149860D03*
X632460Y200660D03*
X708660Y200660D03*
X632460Y99060D03*
X708660Y99060D03*
D12*
X377190Y129540D03*
X392430Y129540D03*
X361950Y114300D03*
X377190Y114300D03*
X407670Y114300D03*
X392430Y114300D03*
D16*
X400050Y95250D03*
X369570Y95250D03*
D12*
X172720Y205740D03*
X157480Y205740D03*
X223520Y205740D03*
X208280Y205740D03*
X334010Y161290D03*
X349250Y161290D03*
X334010Y146050D03*
X349250Y146050D03*
D15*
X401320Y266700D03*
X401320Y251460D03*
X401320Y280670D03*
X401320Y295910D03*
D12*
X349250Y194310D03*
X334010Y194310D03*
D25*
X332740Y177800D03*
X350520Y177800D03*
D16*
X288290Y95250D03*
X318770Y95250D03*
D12*
X311150Y114300D03*
X326390Y114300D03*
X295910Y114300D03*
X280670Y114300D03*
X295910Y129540D03*
X311150Y129540D03*
X252730Y146050D03*
X267970Y146050D03*
X252730Y161290D03*
X267970Y161290D03*
D25*
X251460Y177800D03*
X269240Y177800D03*
D12*
X267970Y194310D03*
X252730Y194310D03*
D36*
X305910Y192405D03*
X300910Y192405D03*
X295910Y192405D03*
X290910Y192405D03*
X285910Y192405D03*
X285910Y147955D03*
X290910Y147955D03*
X295910Y147955D03*
X300910Y147955D03*
X305910Y147955D03*
X387190Y192405D03*
X382190Y192405D03*
X377190Y192405D03*
X372190Y192405D03*
X367190Y192405D03*
X367190Y147955D03*
X372190Y147955D03*
X377190Y147955D03*
X382190Y147955D03*
X387190Y147955D03*
D37*
X458470Y250190D03*
X445770Y250190D03*
X433070Y250190D03*
X420370Y250190D03*
X420370Y196850D03*
X433070Y196850D03*
X445770Y196850D03*
X458470Y196850D03*
D12*
X191770Y260350D03*
X207010Y260350D03*
X231140Y260350D03*
X246380Y260350D03*
D37*
X161290Y351790D03*
X148590Y351790D03*
X135890Y351790D03*
X123190Y351790D03*
X123190Y298450D03*
X135890Y298450D03*
X148590Y298450D03*
X161290Y298450D03*
D15*
X140970Y260350D03*
X140970Y275590D03*
D12*
X125730Y387350D03*
X140970Y387350D03*
X125730Y372110D03*
X140970Y372110D03*
X207010Y367030D03*
X191770Y367030D03*
D38*
X168910Y567055D03*
X168910Y405765D03*
D39*
X0Y0D02*
X762000Y0D01*
X762000Y654050D01*
X0Y654050D01*
X0Y0D01*
X177910Y446012D02*
X177842Y445229D01*
X177705Y444455D01*
X177502Y443696D01*
X177233Y442958D01*
X176901Y442245D01*
X176508Y441565D01*
X176057Y440921D01*
X175552Y440319D01*
X174996Y439763D01*
X174394Y439258D01*
X173750Y438807D01*
X173070Y438414D01*
X172357Y438082D01*
X171619Y437813D01*
X170860Y437610D01*
X170086Y437474D01*
X169303Y437405D01*
X168517Y437405D01*
X167734Y437474D01*
X166960Y437610D01*
X166201Y437813D01*
X165463Y438082D01*
X164750Y438414D01*
X164070Y438807D01*
X163426Y439258D01*
X162824Y439763D01*
X162268Y440319D01*
X161763Y440921D01*
X161312Y441565D01*
X160919Y442245D01*
X160587Y442958D01*
X160318Y443696D01*
X160115Y444455D01*
X159979Y445229D01*
X159910Y446012D01*
X159910Y446798D01*
X159979Y447581D01*
X160115Y448355D01*
X160318Y449114D01*
X160587Y449852D01*
X160919Y450565D01*
X161312Y451245D01*
X161763Y451889D01*
X162268Y452491D01*
X162824Y453047D01*
X163426Y453552D01*
X164070Y454003D01*
X164750Y454396D01*
X165463Y454728D01*
X166201Y454997D01*
X166960Y455200D01*
X167734Y455337D01*
X168517Y455405D01*
X169303Y455405D01*
X170086Y455337D01*
X170860Y455200D01*
X171619Y454997D01*
X172357Y454728D01*
X173070Y454396D01*
X173750Y454003D01*
X174394Y453552D01*
X174996Y453047D01*
X175552Y452491D01*
X176057Y451889D01*
X176508Y451245D01*
X176901Y450565D01*
X177233Y449852D01*
X177502Y449114D01*
X177705Y448355D01*
X177842Y447581D01*
X177910Y446798D01*
X177910Y446012D01*
X174910Y520998D02*
X174835Y520328D01*
X174685Y519671D01*
X174462Y519035D01*
X174170Y518428D01*
X173811Y517858D01*
X173391Y517331D01*
X172914Y516854D01*
X172388Y516434D01*
X171817Y516075D01*
X171210Y515783D01*
X170574Y515560D01*
X169917Y515410D01*
X169247Y515335D01*
X168573Y515335D01*
X167903Y515410D01*
X167246Y515560D01*
X166610Y515783D01*
X166003Y516075D01*
X165433Y516434D01*
X164906Y516854D01*
X164429Y517331D01*
X164009Y517858D01*
X163650Y518428D01*
X163358Y519035D01*
X163135Y519671D01*
X162985Y520328D01*
X162910Y520998D01*
X162910Y521672D01*
X162985Y522342D01*
X163135Y522999D01*
X163358Y523635D01*
X163650Y524242D01*
X164009Y524813D01*
X164429Y525339D01*
X164906Y525816D01*
X165433Y526236D01*
X166003Y526595D01*
X166610Y526887D01*
X167246Y527110D01*
X167903Y527260D01*
X168573Y527335D01*
X169247Y527335D01*
X169917Y527260D01*
X170574Y527110D01*
X171210Y526887D01*
X171817Y526595D01*
X172388Y526236D01*
X172914Y525816D01*
X173391Y525339D01*
X173811Y524813D01*
X174170Y524242D01*
X174462Y523635D01*
X174685Y522999D01*
X174835Y522342D01*
X174910Y521672D01*
X174910Y520998D01*
M02*
