M48
;GenerationSoftware,Autodesk,EAGLE,9.3.0*%
;CreationDate,2020-01-01T11:33:11Z*%
FMAT,2
ICI,OFF
METRIC,TZ,000.000
T9C0.400
T8C0.600
T7C0.700
T6C1.000
T5C1.100
T4C1.200
T3C1.500
T2C1.600
T1C1.800
%
G90
M71
T1
X16891Y44640
T2
X67100Y60579
X64560Y63119
X64560Y58039
X69640Y63119
X69640Y58039
T3
X53600Y58079
X37600Y58079
X30600Y58079
X46600Y58079
T4
X16891Y52133
T5
X66850Y6477
X44577Y41402
X70350Y6477
X5850Y6477
X9350Y6477
X12850Y6477
X21844Y29845
X42037Y41402
X42037Y43942
X42037Y46482
X44577Y43942
X44577Y46482
X42037Y38862
X21844Y32385
X24384Y29845
X24384Y32385
X19304Y29845
X19304Y32385
X16350Y6477
X19850Y6477
X23350Y6477
X26850Y6477
X30350Y6477
X33850Y6477
X37350Y6477
X40850Y6477
X44350Y6477
X44577Y38862
X52350Y60579
X47850Y60579
X59850Y6477
X31850Y60579
X36350Y60579
X52850Y6477
X56350Y6477
X63350Y6477
T6
X70866Y9906
X11370Y59309
X11370Y56769
X59944Y27686
X52324Y14986
X52324Y20066
X59944Y20066
X63246Y9906
X70866Y20066
X63246Y20066
X63246Y14986
X59944Y9906
X8830Y56769
X70866Y27686
X70866Y14986
X63246Y27686
X52324Y27686
X59944Y14986
X52324Y9906
X8830Y59309
T7
X14478Y24638
X38354Y21209
X33528Y21082
X30099Y21082
X27432Y24638
X27432Y21082
X37338Y53340
X47752Y26670
X8509Y32512
X20574Y49149
X37338Y46736
X26416Y49149
X48006Y41402
X10033Y24638
X6604Y42799
T8
X56515Y33020
X67056Y33020
X14224Y56769
X9652Y37973
X41275Y9525
X9271Y36703
X10414Y33909
X21209Y47371
X24511Y47371
X33147Y9525
X42037Y18034
X12319Y28194
T9
X30861Y23368
X37338Y23495
X43180Y30607
X39370Y32385
X23368Y20574
X18288Y20574
X33020Y29718
X26289Y32131
X39370Y39116
X50292Y25273
X8255Y41021
X28321Y36576
X24384Y35179
X32004Y40767
X24384Y39751
X32004Y43307
X36449Y40767
X46355Y36449
X17399Y27940
X28956Y22225
X28702Y24765
X27051Y27305
X17399Y26924
X24384Y43434
X22352Y43434
X24384Y44958
X22352Y44958
X48895Y29591
X39878Y30861
X59055Y35306
X56261Y35306
X28321Y39751
X31877Y50038
X40132Y24130
X38227Y24257
X29845Y32131
X30861Y50038
X22860Y35179
X35179Y22098
X42291Y36322
X30099Y28321
X41275Y36322
X29083Y28321
X29972Y22860
X29210Y25654
X26924Y28321
X28956Y17526
X21717Y25781
X37084Y17526
X25654Y25781
X15113Y33401
X19685Y37973
X36449Y21209
X24511Y46228
X28448Y46228
X4826Y45085
X9652Y45085
X21336Y46228
X28321Y38608
X28321Y35052
X15113Y37211
X19685Y38989
X23368Y24638
X18288Y24638
X23368Y22098
X18288Y22098
X44450Y33147
X11430Y18034
X38862Y43180
X31242Y46736
X11430Y53975
X30861Y40767
X46228Y30607
X39370Y33401
X52832Y37973
X48133Y43688
X32512Y33909
X36068Y33909
X36068Y37465
X32512Y37465
X15240Y26035
X11557Y37211
X27940Y43434
X10287Y11557
X38481Y16510
X37084Y16510
X38481Y17526
X30353Y17526
X30353Y16510
X28956Y16510
X32385Y14605
X32385Y16129
X54737Y37973
X24257Y14605
X24257Y16129
X40894Y33909
X50292Y23749
X5715Y10922
X5715Y12319
X11303Y12573
X9017Y16510
X9017Y17399
X5715Y28194
X5715Y30607
X4572Y32512
X5715Y34417
X24257Y61468
X17907Y61468
X25146Y64008
X22352Y64008
X19939Y64008
X17145Y64008
X48387Y15113
X34925Y42037
X48133Y42672
X65913Y51562
X48133Y51562
X48133Y52578
X19685Y59563
M30