G04 EAGLE Gerber RS-274X export*
G75*
%MOMM*%
%FSLAX34Y34*%
%LPD*%
%INSoldermask Bottom*%
%IPPOS*%
%AMOC8*
5,1,8,0,0,1.08239X$1,22.5*%
G01*
%ADD10C,1.853200*%
%ADD11C,2.603200*%
%ADD12C,1.711200*%
%ADD13C,2.453200*%
%ADD14C,1.309600*%
%ADD15C,0.254000*%


D10*
X218440Y298450D03*
X193040Y323850D03*
X193040Y298450D03*
X243840Y323850D03*
X243840Y298450D03*
X218440Y323850D03*
X420370Y388620D03*
X445770Y464820D03*
X445770Y439420D03*
X420370Y464820D03*
X420370Y439420D03*
X420370Y414020D03*
X445770Y414020D03*
X445770Y388620D03*
D11*
X671000Y605790D03*
X645600Y631190D03*
X645600Y580390D03*
X696400Y580390D03*
X696400Y631190D03*
D10*
X443500Y64770D03*
X408500Y64770D03*
X373500Y64770D03*
X338500Y64770D03*
X303500Y64770D03*
X268500Y64770D03*
X233500Y64770D03*
X198500Y64770D03*
X163500Y64770D03*
X128500Y64770D03*
X93500Y64770D03*
X58500Y64770D03*
X703500Y64770D03*
X668500Y64770D03*
X633500Y64770D03*
X598500Y64770D03*
X563500Y64770D03*
X528500Y64770D03*
D12*
X113700Y567690D03*
X88300Y567690D03*
X113700Y593090D03*
X88300Y593090D03*
D10*
X363500Y605790D03*
X318500Y605790D03*
D13*
X376000Y580790D03*
X306000Y580790D03*
D10*
X523500Y605790D03*
X478500Y605790D03*
D13*
X536000Y580790D03*
X466000Y580790D03*
D12*
X523240Y276860D03*
X599440Y149860D03*
X599440Y276860D03*
X523240Y149860D03*
X523240Y200660D03*
X599440Y200660D03*
X523240Y99060D03*
X599440Y99060D03*
X632460Y276860D03*
X708660Y149860D03*
X708660Y276860D03*
X632460Y149860D03*
X632460Y200660D03*
X708660Y200660D03*
X632460Y99060D03*
X708660Y99060D03*
D14*
X373380Y533400D03*
X477520Y228600D03*
X184150Y502920D03*
X271780Y502920D03*
X477520Y266700D03*
X373380Y467360D03*
X95250Y252730D03*
X66040Y427990D03*
X85090Y325120D03*
X406400Y215900D03*
X144780Y252730D03*
X383540Y212090D03*
X335280Y210820D03*
X300990Y210820D03*
X275590Y252730D03*
X275590Y210820D03*
X480060Y414020D03*
D15*
X0Y0D02*
X762000Y0D01*
X762000Y654050D01*
X0Y654050D01*
X0Y0D01*
M02*
