G04 EAGLE Gerber RS-274X export*
G75*
%MOMM*%
%FSLAX34Y34*%
%LPD*%
%INSoldermask Top*%
%IPPOS*%
%AMOC8*
5,1,8,0,0,1.08239X$1,22.5*%
G01*
%ADD10R,0.965200X1.092200*%
%ADD11C,1.853200*%
%ADD12C,2.603200*%
%ADD13R,1.092200X0.965200*%
%ADD14R,0.838200X1.219200*%
%ADD15R,1.219200X1.981200*%
%ADD16R,1.981200X1.219200*%
%ADD17R,1.219200X0.508000*%
%ADD18R,0.508000X1.219200*%
%ADD19R,5.283200X5.283200*%
%ADD20R,0.965200X1.473200*%
%ADD21R,2.489200X1.727200*%
%ADD22R,0.508000X0.965200*%
%ADD23R,3.759200X4.267200*%
%ADD24R,1.346200X0.711200*%
%ADD25C,1.711200*%
%ADD26R,1.727200X0.903200*%
%ADD27R,1.219200X0.838200*%
%ADD28R,1.219200X1.473200*%
%ADD29R,1.473200X1.219200*%
%ADD30R,1.854200X1.600200*%
%ADD31R,2.003200X2.103200*%
%ADD32R,2.103200X2.103200*%
%ADD33R,1.803200X1.603200*%
%ADD34R,0.603200X1.603200*%
%ADD35C,2.453200*%
%ADD36R,2.997200X3.759200*%
%ADD37R,0.838200X1.346200*%
%ADD38R,3.603200X2.803200*%
%ADD39R,0.503200X1.600200*%
%ADD40C,1.309600*%
%ADD41C,0.254000*%


D10*
X419100Y323850D03*
X434340Y323850D03*
X72390Y410210D03*
X57150Y410210D03*
X473710Y379730D03*
X488950Y379730D03*
X473710Y364490D03*
X488950Y364490D03*
X547370Y364490D03*
X532130Y364490D03*
X419100Y339090D03*
X434340Y339090D03*
X492760Y240030D03*
X477520Y240030D03*
X492760Y255270D03*
X477520Y255270D03*
X269240Y397510D03*
X254000Y397510D03*
X205740Y427990D03*
X220980Y427990D03*
X205740Y412750D03*
X220980Y412750D03*
X317500Y234950D03*
X332740Y234950D03*
X363220Y234950D03*
X347980Y234950D03*
X304800Y420370D03*
X320040Y420370D03*
X254000Y351790D03*
X269240Y351790D03*
X273050Y321310D03*
X288290Y321310D03*
D11*
X218440Y298450D03*
X193040Y323850D03*
X193040Y298450D03*
X243840Y323850D03*
X243840Y298450D03*
X218440Y323850D03*
X420370Y388620D03*
X445770Y464820D03*
X445770Y439420D03*
X420370Y464820D03*
X420370Y439420D03*
X420370Y414020D03*
X445770Y414020D03*
X445770Y388620D03*
D12*
X671000Y605790D03*
X645600Y631190D03*
X645600Y580390D03*
X696400Y580390D03*
X696400Y631190D03*
D11*
X443500Y64770D03*
X408500Y64770D03*
X373500Y64770D03*
X338500Y64770D03*
X303500Y64770D03*
X268500Y64770D03*
X233500Y64770D03*
X198500Y64770D03*
X163500Y64770D03*
X128500Y64770D03*
X93500Y64770D03*
X58500Y64770D03*
X703500Y64770D03*
X668500Y64770D03*
X633500Y64770D03*
X598500Y64770D03*
X563500Y64770D03*
X528500Y64770D03*
D13*
X81915Y367030D03*
X45085Y367030D03*
D10*
X638810Y301625D03*
X638810Y338455D03*
D13*
X81915Y95250D03*
X45085Y95250D03*
X81915Y344170D03*
X45085Y344170D03*
D14*
X437540Y149860D03*
X456540Y149860D03*
X447040Y172720D03*
D10*
X533400Y301625D03*
X533400Y338455D03*
D15*
X78740Y391160D03*
X48260Y391160D03*
D16*
X434340Y102870D03*
X434340Y133350D03*
X459740Y102870D03*
X459740Y133350D03*
D17*
X308610Y381870D03*
X308610Y376870D03*
X308610Y371870D03*
X308610Y366870D03*
X308610Y361870D03*
X308610Y356870D03*
X308610Y351870D03*
X308610Y346870D03*
X308610Y341870D03*
X308610Y336870D03*
X308610Y331870D03*
D18*
X317900Y322580D03*
X322900Y322580D03*
X327900Y322580D03*
X332900Y322580D03*
X337900Y322580D03*
X342900Y322580D03*
X347900Y322580D03*
X352900Y322580D03*
X357900Y322580D03*
X362900Y322580D03*
X367900Y322580D03*
D17*
X377190Y331870D03*
X377190Y336870D03*
X377190Y341870D03*
X377190Y346870D03*
X377190Y351870D03*
X377190Y356870D03*
X377190Y361870D03*
X377190Y366870D03*
X377190Y371870D03*
X377190Y376870D03*
X377190Y381870D03*
D18*
X367900Y391160D03*
X362900Y391160D03*
X357900Y391160D03*
X352900Y391160D03*
X347900Y391160D03*
X342900Y391160D03*
X337900Y391160D03*
X332900Y391160D03*
X327900Y391160D03*
X322900Y391160D03*
X317900Y391160D03*
D19*
X342900Y356870D03*
D20*
X157480Y121940D03*
X182880Y121940D03*
X182880Y187940D03*
X157480Y187940D03*
X203200Y121940D03*
X228600Y121940D03*
X228600Y187940D03*
X203200Y187940D03*
D21*
X447040Y248920D03*
D22*
X456790Y264160D03*
X450290Y264160D03*
X443790Y264160D03*
X437290Y264160D03*
X437290Y233680D03*
X443790Y233680D03*
X450290Y233680D03*
X456790Y233680D03*
D23*
X152400Y374650D03*
D24*
X122555Y393700D03*
X122555Y381000D03*
X122555Y368300D03*
X122555Y355600D03*
X182245Y355600D03*
X182245Y368300D03*
X182245Y381000D03*
X182245Y393700D03*
D25*
X113700Y567690D03*
X88300Y567690D03*
X113700Y593090D03*
X88300Y593090D03*
D26*
X642620Y416210D03*
X642620Y426210D03*
X642620Y436210D03*
X642620Y446210D03*
X642620Y456210D03*
X642620Y466210D03*
X642620Y476210D03*
X642620Y486210D03*
X642620Y496210D03*
X642620Y506210D03*
X642620Y516210D03*
X642620Y526210D03*
X497840Y526210D03*
X497840Y516210D03*
X497840Y506210D03*
X497840Y456210D03*
X497840Y446210D03*
X497840Y436210D03*
X497840Y426210D03*
X497840Y416210D03*
D27*
X576580Y306730D03*
X576580Y325730D03*
X553720Y316230D03*
X681990Y306730D03*
X681990Y325730D03*
X659130Y316230D03*
D10*
X273050Y306070D03*
X288290Y306070D03*
X205740Y367030D03*
X220980Y367030D03*
X205740Y351790D03*
X220980Y351790D03*
X205740Y397510D03*
X220980Y397510D03*
X205740Y382270D03*
X220980Y382270D03*
X254000Y382270D03*
X269240Y382270D03*
D28*
X179070Y95250D03*
X161290Y95250D03*
D10*
X177800Y220980D03*
X162560Y220980D03*
D28*
X223520Y95250D03*
X205740Y95250D03*
D10*
X223520Y220980D03*
X208280Y220980D03*
D13*
X462280Y295910D03*
X462280Y280670D03*
X477520Y295910D03*
X477520Y280670D03*
D10*
X254000Y367030D03*
X269240Y367030D03*
D13*
X431800Y295910D03*
X431800Y280670D03*
X447040Y295910D03*
X447040Y280670D03*
X416560Y295910D03*
X416560Y280670D03*
X473710Y199390D03*
X473710Y214630D03*
D29*
X457200Y198120D03*
X457200Y215900D03*
X436880Y198120D03*
X436880Y215900D03*
D13*
X420370Y199390D03*
X420370Y214630D03*
X607060Y308610D03*
X607060Y323850D03*
X591820Y323850D03*
X591820Y308610D03*
X712470Y308610D03*
X712470Y323850D03*
D10*
X590550Y364490D03*
X605790Y364490D03*
D13*
X697230Y323850D03*
X697230Y308610D03*
D10*
X220980Y458470D03*
X205740Y458470D03*
X220980Y443230D03*
X205740Y443230D03*
X269240Y412750D03*
X254000Y412750D03*
X160020Y427990D03*
X144780Y427990D03*
X160020Y412750D03*
X144780Y412750D03*
X605790Y379730D03*
X590550Y379730D03*
X561340Y364490D03*
X576580Y364490D03*
X576580Y379730D03*
X561340Y379730D03*
X518160Y364490D03*
X502920Y364490D03*
X518160Y379730D03*
X502920Y379730D03*
D30*
X319405Y254635D03*
X361315Y254635D03*
X361315Y281305D03*
X319405Y281305D03*
D31*
X251000Y639550D03*
D32*
X223000Y639550D03*
D31*
X171000Y639550D03*
D32*
X199000Y639550D03*
D33*
X243000Y615550D03*
X179000Y615550D03*
D34*
X211000Y612550D03*
X217500Y612550D03*
X224000Y612550D03*
X204500Y612550D03*
X198000Y612550D03*
D11*
X363500Y605790D03*
X318500Y605790D03*
D35*
X376000Y580790D03*
X306000Y580790D03*
D11*
X523500Y605790D03*
X478500Y605790D03*
D35*
X536000Y580790D03*
X466000Y580790D03*
D36*
X345440Y467360D03*
X345440Y533400D03*
D10*
X359410Y420370D03*
X374650Y420370D03*
D37*
X65430Y142875D03*
X74930Y142875D03*
X84430Y142875D03*
X84430Y167005D03*
X74930Y167005D03*
X65430Y167005D03*
D15*
X48260Y119380D03*
X78740Y119380D03*
X48260Y281940D03*
X78740Y281940D03*
X48260Y306070D03*
X78740Y306070D03*
D38*
X74930Y253790D03*
X74930Y195790D03*
D13*
X46990Y170180D03*
X46990Y154940D03*
D10*
X55880Y325120D03*
X71120Y325120D03*
D13*
X102870Y125730D03*
X102870Y140970D03*
X118110Y170180D03*
X118110Y154940D03*
X102870Y154940D03*
X102870Y170180D03*
D25*
X523240Y276860D03*
X599440Y149860D03*
X599440Y276860D03*
X523240Y149860D03*
X523240Y200660D03*
X599440Y200660D03*
X523240Y99060D03*
X599440Y99060D03*
X632460Y276860D03*
X708660Y149860D03*
X708660Y276860D03*
X632460Y149860D03*
X632460Y200660D03*
X708660Y200660D03*
X632460Y99060D03*
X708660Y99060D03*
D10*
X377190Y129540D03*
X392430Y129540D03*
X361950Y114300D03*
X377190Y114300D03*
X407670Y114300D03*
X392430Y114300D03*
D15*
X400050Y95250D03*
X369570Y95250D03*
D10*
X177800Y205740D03*
X162560Y205740D03*
X223520Y205740D03*
X208280Y205740D03*
X334010Y161290D03*
X349250Y161290D03*
X334010Y146050D03*
X349250Y146050D03*
D13*
X401320Y266700D03*
X401320Y251460D03*
X401320Y280670D03*
X401320Y295910D03*
D10*
X349250Y194310D03*
X334010Y194310D03*
D28*
X332740Y177800D03*
X350520Y177800D03*
D15*
X288290Y95250D03*
X318770Y95250D03*
D10*
X311150Y114300D03*
X326390Y114300D03*
X295910Y114300D03*
X280670Y114300D03*
X295910Y129540D03*
X311150Y129540D03*
X252730Y146050D03*
X267970Y146050D03*
X252730Y161290D03*
X267970Y161290D03*
D28*
X251460Y177800D03*
X269240Y177800D03*
D10*
X267970Y194310D03*
X252730Y194310D03*
D39*
X305910Y192405D03*
X300910Y192405D03*
X295910Y192405D03*
X290910Y192405D03*
X285910Y192405D03*
X285910Y147955D03*
X290910Y147955D03*
X295910Y147955D03*
X300910Y147955D03*
X305910Y147955D03*
X387190Y192405D03*
X382190Y192405D03*
X377190Y192405D03*
X372190Y192405D03*
X367190Y192405D03*
X367190Y147955D03*
X372190Y147955D03*
X377190Y147955D03*
X382190Y147955D03*
X387190Y147955D03*
D40*
X373380Y533400D03*
X477520Y228600D03*
X184150Y502920D03*
X271780Y502920D03*
X477520Y266700D03*
X373380Y467360D03*
X95250Y252730D03*
X66040Y427990D03*
X85090Y325120D03*
X406400Y215900D03*
X144780Y252730D03*
X383540Y212090D03*
X335280Y210820D03*
X300990Y210820D03*
X275590Y252730D03*
X275590Y210820D03*
X480060Y414020D03*
D41*
X0Y0D02*
X762000Y0D01*
X762000Y654050D01*
X0Y654050D01*
X0Y0D01*
M02*
